<svg preserveAspectRatio="xMidYMid meet" data-bbox="0 0 48.769 48.964" viewBox="0 0 48.77 48.956" height="800" width="800" xmlns="http://www.w3.org/2000/svg" data-type="ugc" role="presentation" aria-hidden="true" aria-label="">
    <g>
        <defs>
            <clipPath id="5f259578-36ad-46db-8082-3c6a18a85e44_comp-lz6rdkv8">
                <path d="M338.37 482.97a1.4 1.4 0 1 0-1.694 1.03 1.4 1.4 0 0 0 1.694-1.03"></path>
            </clipPath>
        </defs>
        <g>
            <g>
                <g>
                    <g>
                        <path fill="#1a1818" d="M40.385 45.489s9.031 1.142 6.55-7.153c0 0 5.75 9.3-6.583 8.594Z"></path>
                        <path d="M41.63 47.461c-.417 0-.856-.012-1.307-.038l-.476-.028.058-2.462.541.067a9 9 0 0 0 .992.05c1.283 0 3.607-.228 4.744-1.756.815-1.094.909-2.713.282-4.816l-1.07-3.572 1.96 3.17c.1.162 2.435 3.992.886 6.771-.968 1.736-3.191 2.614-6.61 2.614m-.775-1c3.488.124 5.677-.581 6.523-2.094a3.8 3.8 0 0 0 .372-2.262 4.34 4.34 0 0 1-.777 1.778c-1.4 1.874-4.066 2.155-5.535 2.155-.216 0-.409-.008-.572-.015Z"></path>
                    </g>
                    <g>
                        <path fill="#1a1818" d="M22.172 10.396s-6.387.155-7.056-1.959.641-3.322 1.789-1.747a14.8 14.8 0 0 0 5.267 3.706"></path>
                        <path d="M21.886 10.893c-1.958 0-6.581-.225-7.241-2.306a2.94 2.94 0 0 1 .172-2.57 1.24 1.24 0 0 1 1.016-.538 1.86 1.86 0 0 1 1.472.92 14.55 14.55 0 0 0 5.012 3.527l2.883.89-3.015.074s-.109.003-.299.003m-6.053-4.428c-.031 0-.12 0-.22.135a2.02 2.02 0 0 0-.029 1.687c.277.868 2.191 1.365 4.383 1.543a12.9 12.9 0 0 1-3.461-2.848c-.278-.382-.53-.517-.673-.517"></path>
                    </g>
                    <g>
                        <g>
                            <path fill="#d77d2c" d="M20.605 14.926c1.3-.381 3.3-4.4 4.108-4.379s-4.662 6.115 3.852 8.083a36.1 36.1 0 0 0 10.961.233l-.052-.215c-1.707-7.153-9.356-9.175-13.969-9.9-4.357-.684-6.06 2.816-6.854 3.717.302.964 1 2.74 1.954 2.461"></path>
                        </g>
                        <g>
                            <path fill="#d77d2c" d="M41.903 48.273c.105-.017.2-.034.3-.053 1.119-.238 1.491-2.425 1.425-5.553-4.902 1.271-3.318 3.964-1.725 5.606"></path>
                        </g>
                        <g>
                            <path fill="#d77d2c" d="M39.704 35.699c.5 2.241 1.627 4.169 3.824 4.914a79 79 0 0 0-1.355-8.417c-1.48 1.369-2.936 1.437-2.469 3.503"></path>
                        </g>
                        <g>
                            <path fill="#ffffff" d="M17.755 35.146c-.244 1.54-2.31 9.351-2.31 9.351l-3.817.369c-1.1-1.363-2.036-.975-2.036-.975s1.043 3.73 1.554 3.949 6.788.112 6.788.112a12 12 0 0 1 1.549-.124c.3-3.856 1.384-11.878 5.222-11.913 3.281-.03 5.916 7.251 7.362 12.362a64 64 0 0 0 9.836 0c-1.593-1.646-3.177-4.339 1.721-5.606a39 39 0 0 0-.1-2.058c-2.2-.745-3.321-2.673-3.824-4.914-.467-2.066.992-2.134 2.469-3.5-.97-5.8-2.163-11.275-2.647-13.333a36.1 36.1 0 0 1-10.961-.233c-8.514-1.968-3.04-8.064-3.852-8.083s-2.8 4-4.108 4.379c-.954.279-1.652-1.5-1.954-2.463a2 2 0 0 1-.134.134c-.736.6-4.211-.41-8.51-1.436s-3.844 1.555-3.844 1.555c-.363 14.92 6.731 17.312 13 16.554l-.912 2.9"></path>
                        </g>
                        <g>
                            <path fill="#fdcc7d" d="M24.705 35.915c-3.838.035-4.924 8.057-5.222 11.913 2.819-.084 7.872.232 12.584.449-1.446-5.111-4.081-12.392-7.362-12.362"></path>
                            <path fill="#1a1818" d="m32.728 48.802-.684-.034c-1.05-.047-2.117-.1-3.17-.152-3.714-.187-7.2-.361-9.377-.3l-.549.016.042-.547c.359-4.6 1.577-12.333 5.711-12.368 2.824 0 5.454 4.279 7.842 12.72Zm-12.207-1.483c2.2 0 5.211.152 8.4.31l2.479.123c-2.112-7.221-4.533-11.343-6.675-11.343-3.369.028-4.419 7.761-4.706 10.914q.243-.004.502-.004"></path>
                        </g>
                    </g>
                    <g>
                        <path fill="#e50019" d="M21.424 29.324s6.2-2.267 6.794-2.66c0 0-.429 3.582-3.419 4.676-2.156.788-3.058-.184-3.375-2.016"></path>
                    </g>
                    <g>
                        <path d="M38.383 48.956c-2.679 0-6.134-.174-9.521-.342-4.742-.235-9.221-.459-10.842-.177l-.076.008a51 51 0 0 1-6.993-.152c-.2-.082-.729-.311-1.836-4.269l-.118-.42.4-.168c.05-.021 1.184-.468 2.433.914l3.225-.312c.4-1.427 1.987-7.119 2.194-8.425l.006-.038c.01-.046.932-3.958 1.292-5.734a11.8 11.8 0 0 1-7.119-1.4c-4.015-2.4-5.955-7.679-5.765-15.7a2.02 2.02 0 0 1 .587-1.679c.736-.692 2.037-.82 3.866-.384l2.041.5c2.483.612 5.573 1.373 6.044 1.037a4.6 4.6 0 0 0 .457-.582c.942-1.3 2.9-4.006 6.918-3.373 8.219 1.295 13.054 4.752 14.373 10.276 1.813 7.589 5.775 25.648 3.421 29.37a1.67 1.67 0 0 1-1.074.8 21.4 21.4 0 0 1-3.913.25m-17.856-1.635c2.205 0 5.235.15 8.383.308 5.2.259 11.1.555 13.187.113a.74.74 0 0 0 .443-.365c1.761-2.782-.677-16.606-3.545-28.613-1.219-5.1-5.783-8.3-13.568-9.531-3.42-.539-5.011 1.664-5.963 2.978a4.5 4.5 0 0 1-.635.768c-.773.629-2.786.17-6.9-.843q-.978-.241-2.036-.495c-1.443-.346-2.495-.3-2.96.141a1.03 1.03 0 0 0-.282.849l.007.049v.049c-.187 7.654 1.59 12.655 5.28 14.863 6.26 3.744 16.108-1.767 16.205-1.823l.717-.407.022.823c.047 1.858-.876 5.472-4.712 5.862-1.949.2-2.949-1.735-3.28-2.547q-.642.134-1.307.225c-.3 1.589-1.27 5.7-1.357 6.06-.255 1.585-2.221 8.55-2.3 8.846l-.092.325-4.417.427-.168-.207a2.3 2.3 0 0 0-.992-.784 15.2 15.2 0 0 0 1.132 3c.535.1 3.676.114 6.508.066a18 18 0 0 1 2.63-.137m1.342-18.043c.3.671 1.027 1.9 2.2 1.786a4.23 4.23 0 0 0 3.769-4.017 30 30 0 0 1-5.969 2.226Z"></path>
                    </g>
                    <g>
                        <path fill="#1a1818" d="M36.053 13.311a47 47 0 0 0 7.263 1.812c4.413.6 6.97 3.782 2.587 3.765-8.354-.029-6.846-2.002-9.85-5.577"></path>
                        <path d="M45.933 19.383h-.032c-6.313-.023-7.268-1.151-8.67-3.493a16 16 0 0 0-1.556-2.262l-1.14-1.357 1.678.571a47 47 0 0 0 7.17 1.792c2.908.4 5.377 1.964 5.283 3.357-.034.52-.436 1.392-2.733 1.392m-8.562-5.138c.269.4.495.782.708 1.138 1.19 1.99 1.789 2.99 7.826 3.011l.028.494v-.494c1.249 0 1.735-.289 1.748-.47.035-.518-1.6-1.929-4.432-2.312a41.6 41.6 0 0 1-5.878-1.367"></path>
                    </g>
                    <g>
                        <path d="M8.131 12.125s-.9 3.5.487 5.525 4.773 2.519 6.037 1.415 3.174-3.527 1.449-4.6-7.719-3.966-7.973-2.34"></path>
                    </g>
                    <g>
                        <path fill="#ffffff" d="m35.862 43.573-6.078 1.922s-1.033-2.7-1.7-2.107.434 4.819.434 4.819l8.989.21"></path>
                        <path fill="#1a1818" d="m37.493 48.912-9.358-.222-.1-.359c-.539-2.062-1.026-4.656-.283-5.313a.8.8 0 0 1 .732-.182c.666.162 1.253 1.282 1.585 2.049l5.644-1.781.3.94-6.52 2.061-.168-.434a6.8 6.8 0 0 0-.958-1.78 14 14 0 0 0 .535 3.83l8.614.2Z"></path>
                    </g>
                    <g>
                        <path fill="#96999c" d="M38.127 31.173a1.1 1.1 0 0 1-1.523.268l-4.673-3.282a1.09 1.09 0 0 1-.264-1.522l6.919-9.852a1.09 1.09 0 0 1 1.521-.265l4.672 3.281a1.1 1.1 0 0 1 .266 1.522Z"></path>
                        <path fill="#1a1818" d="M37.229 32.126a1.6 1.6 0 0 1-.91-.287l-4.671-3.281a1.59 1.59 0 0 1-.387-2.209l6.92-9.851a1.586 1.586 0 0 1 2.209-.389l4.671 3.282a1.59 1.59 0 0 1 .387 2.211l-6.918 9.85a1.59 1.59 0 0 1-1.301.674M39.48 16.81a.6.6 0 0 0-.491.255l-6.918 9.85a.6.6 0 0 0 .145.836l4.671 3.279a.614.614 0 0 0 .833-.145l6.919-9.852a.6.6 0 0 0-.145-.834l-4.672-3.281a.6.6 0 0 0-.342-.108"></path>
                    </g>
                    <g>
                        <path fill="#ffffff" d="m35.287 33.29.694-5.425s-2.117.4-2.075-1.385 2.109-1.246 2.109-1.246a1.5 1.5 0 0 1 1.262-1.935c1.706-.294 1.387 1.954 1.387 1.954s1.567-.319 2.02.718c.781 1.778-1.829 2.006-1.829 2.006l-.171 7.193"></path>
                        <path fill="#1a1818" d="m39.177 35.184-.986-.024.18-7.637.44-.039c.3-.026 1.2-.2 1.459-.638.036-.063.149-.254-.037-.679-.286-.651-1.459-.434-1.47-.43l-.686.14.1-.692a1.85 1.85 0 0 0-.244-1.3c-.044-.042-.177-.17-.57-.1a1.07 1.07 0 0 0-.757.417 1.3 1.3 0 0 0-.111.906l.207.811-.809-.207a1.72 1.72 0 0 0-1.229.121c-.064.046-.251.189-.263.659a.81.81 0 0 0 .236.679 1.76 1.76 0 0 0 1.256.211l.663-.121-.778 6.093-.978-.125.617-4.833A2.25 2.25 0 0 1 34 27.927a1.76 1.76 0 0 1-.585-1.457 1.74 1.74 0 0 1 .654-1.427 2.2 2.2 0 0 1 1.4-.377 1.97 1.97 0 0 1 .3-.99 2 2 0 0 1 1.425-.864 1.55 1.55 0 0 1 1.427.369 2.24 2.24 0 0 1 .561 1.527 2.01 2.01 0 0 1 1.957 1.063 1.66 1.66 0 0 1-.021 1.579 2.68 2.68 0 0 1-1.778 1.05Z"></path>
                    </g>
                    <g>
                        <path d="m27.911 24.647 2.905 2.057-.571.806-2.905-2.057z"></path>
                    </g>
                    <g>
                        <g>
                            <g>
                                <g clip-path="url(#5f259578-36ad-46db-8082-3c6a18a85e44_comp-lz6rdkv8)" transform="translate(-296.507 -461.627)">
                                    <path fill="#703615" d="M338.554 481.091v3.094h-3.095v-3.094z"></path>
                                    <path fill="#703615" d="M338.968 482.269a2.689 2.689 0 1 1-1.977-3.25 2.69 2.69 0 0 1 1.977 3.25"></path>
                                    <path fill="#713615" d="M338.959 482.267a2.681 2.681 0 1 1-1.972-3.238 2.68 2.68 0 0 1 1.972 3.238"></path>
                                    <path fill="#733615" d="M338.949 482.265a2.67 2.67 0 1 1-1.962-3.226 2.67 2.67 0 0 1 1.962 3.226"></path>
                                    <path fill="#743715" d="M338.939 482.261a2.662 2.662 0 1 1-1.956-3.215 2.66 2.66 0 0 1 1.956 3.215"></path>
                                    <path fill="#763715" d="M338.93 482.261a2.652 2.652 0 1 1-1.949-3.2 2.65 2.65 0 0 1 1.949 3.2"></path>
                                    <path fill="#773815" d="M338.922 482.257a2.643 2.643 0 1 1-1.943-3.192 2.64 2.64 0 0 1 1.943 3.192"></path>
                                    <path fill="#793815" d="M338.913 482.255a2.633 2.633 0 1 1-1.936-3.182 2.634 2.634 0 0 1 1.936 3.182"></path>
                                    <path fill="#7b3815" d="M338.9 482.253a2.623 2.623 0 1 1-1.929-3.17 2.62 2.62 0 0 1 1.929 3.17"></path>
                                    <path fill="#7c3916" d="M338.893 482.251a2.613 2.613 0 1 1-1.921-3.159 2.61 2.61 0 0 1 1.921 3.159"></path>
                                    <path fill="#7e3916" d="M338.886 482.249a2.606 2.606 0 1 1-1.914-3.147 2.606 2.606 0 0 1 1.914 3.147"></path>
                                    <path fill="#7f3a16" d="M338.876 482.245a2.6 2.6 0 1 1-1.908-3.136 2.59 2.59 0 0 1 1.908 3.136"></path>
                                    <path fill="#813a16" d="M338.867 482.243a2.586 2.586 0 1 1-1.9-3.122 2.59 2.59 0 0 1 1.9 3.122"></path>
                                    <path fill="#823a16" d="M338.859 482.241a2.577 2.577 0 1 1-1.9-3.112 2.58 2.58 0 0 1 1.9 3.112"></path>
                                    <path fill="#843b16" d="M338.85 482.239a2.568 2.568 0 1 1-1.888-3.1 2.57 2.57 0 0 1 1.888 3.1"></path>
                                    <path fill="#863b16" d="M338.84 482.235a2.558 2.558 0 1 1-1.881-3.088 2.557 2.557 0 0 1 1.881 3.088"></path>
                                    <path fill="#873b16" d="M338.83 482.235a2.547 2.547 0 1 1-1.873-3.08 2.55 2.55 0 0 1 1.873 3.08"></path>
                                    <path fill="#893c16" d="M338.821 482.233a2.539 2.539 0 1 1-1.866-3.068 2.54 2.54 0 0 1 1.866 3.068"></path>
                                    <path fill="#8a3c16" d="M338.811 482.231a2.529 2.529 0 1 1-1.858-3.056 2.53 2.53 0 0 1 1.858 3.056"></path>
                                    <path fill="#8c3c16" d="M338.8 482.231a2.521 2.521 0 1 1-1.853-3.049 2.52 2.52 0 0 1 1.853 3.049"></path>
                                    <path fill="#8d3d16" d="M338.794 482.227a2.511 2.511 0 1 1-1.845-3.036 2.51 2.51 0 0 1 1.845 3.036"></path>
                                    <path fill="#8f3d16" d="M338.786 482.225a2.5 2.5 0 1 1-1.841-3.024 2.5 2.5 0 0 1 1.841 3.024"></path>
                                    <path fill="#913d17" d="M338.777 482.223a2.492 2.492 0 1 1-1.834-3.012 2.494 2.494 0 0 1 1.834 3.012"></path>
                                    <path fill="#923e17" d="M338.767 482.221a2.484 2.484 0 1 1-1.826-3 2.484 2.484 0 0 1 1.826 3"></path>
                                    <path fill="#943e17" d="M338.758 482.217a2.473 2.473 0 1 1-1.819-2.99 2.47 2.47 0 0 1 1.819 2.99"></path>
                                    <path fill="#953e17" d="M338.748 482.215a2.465 2.465 0 1 1-1.811-2.978 2.463 2.463 0 0 1 1.811 2.978"></path>
                                    <path fill="#973f17" d="M338.74 482.215a2.456 2.456 0 1 1-1.8-2.968 2.456 2.456 0 0 1 1.8 2.968"></path>
                                    <path fill="#993f17" d="M338.731 482.211a2.446 2.446 0 1 1-1.8-2.954 2.446 2.446 0 0 1 1.8 2.954"></path>
                                    <path fill="#9a3f17" d="M338.724 482.209a2.438 2.438 0 1 1-1.792-2.942 2.44 2.44 0 0 1 1.792 2.942"></path>
                                    <path fill="#9c4017" d="M338.714 482.2a2.427 2.427 0 1 1-1.784-2.932 2.43 2.43 0 0 1 1.784 2.932"></path>
                                    <path fill="#9d4017" d="M338.7 482.2a2.419 2.419 0 1 1-1.778-2.922 2.42 2.42 0 0 1 1.778 2.922"></path>
                                    <path fill="#9f4017" d="M338.694 482.2a2.407 2.407 0 1 1-1.77-2.908 2.41 2.41 0 0 1 1.77 2.908"></path>
                                    <path fill="#a04117" d="M338.685 482.2a2.4 2.4 0 1 1-1.763-2.9 2.4 2.4 0 0 1 1.763 2.9"></path>
                                    <path fill="#a24117" d="M338.676 482.2a2.389 2.389 0 1 1-1.756-2.886 2.39 2.39 0 0 1 1.756 2.886"></path>
                                    <path fill="#a34117" d="M338.668 482.2a2.38 2.38 0 1 1-1.75-2.876 2.38 2.38 0 0 1 1.75 2.876"></path>
                                    <path fill="#a54217" d="M338.658 482.193a2.37 2.37 0 1 1-1.742-2.864 2.375 2.375 0 0 1 1.742 2.864"></path>
                                    <path fill="#a74217" d="M338.648 482.189a2.361 2.361 0 1 1-1.733-2.852 2.36 2.36 0 0 1 1.733 2.852"></path>
                                    <path fill="#a84217" d="M338.64 482.189a2.352 2.352 0 1 1-1.729-2.842 2.353 2.353 0 0 1 1.729 2.842"></path>
                                    <path fill="#aa4217" d="M338.63 482.186a2.343 2.343 0 1 1-1.723-2.83 2.34 2.34 0 0 1 1.723 2.83"></path>
                                    <path fill="#ab4317" d="M338.622 482.185a2.334 2.334 0 1 1-1.715-2.822 2.334 2.334 0 0 1 1.715 2.822"></path>
                                    <path fill="#ad4317" d="M338.612 482.183a2.324 2.324 0 1 1-1.707-2.808 2.323 2.323 0 0 1 1.707 2.808"></path>
                                    <path fill="#ae4317" d="M338.6 482.181a2.315 2.315 0 1 1-1.7-2.8 2.31 2.31 0 0 1 1.7 2.8"></path>
                                    <path fill="#b04417" d="M338.6 482.179a2.306 2.306 0 1 1-1.7-2.786 2.31 2.31 0 0 1 1.7 2.786"></path>
                                    <path fill="#b14417" d="M338.586 482.175a2.3 2.3 0 1 1-1.686-2.775 2.3 2.3 0 0 1 1.686 2.775"></path>
                                    <path fill="#b34417" d="M338.576 482.173a2.285 2.285 0 1 1-1.681-2.764 2.287 2.287 0 0 1 1.681 2.764"></path>
                                    <path fill="#b44417" d="M338.566 482.171a2.278 2.278 0 1 1-1.674-2.752 2.276 2.276 0 0 1 1.674 2.752"></path>
                                    <path fill="#b64517" d="M338.557 482.169a2.267 2.267 0 1 1-1.665-2.74 2.264 2.264 0 0 1 1.665 2.74"></path>
                                    <path fill="#b74517" d="M338.55 482.167a2.26 2.26 0 1 1-1.662-2.728 2.26 2.26 0 0 1 1.662 2.728"></path>
                                    <path fill="#b94517" d="M338.54 482.165a2.249 2.249 0 1 1-1.654-2.717 2.25 2.25 0 0 1 1.654 2.717"></path>
                                    <path fill="#ba4517" d="M338.53 482.163a2.239 2.239 0 1 1-1.644-2.708 2.24 2.24 0 0 1 1.644 2.708"></path>
                                    <path fill="#bc4617" d="M338.522 482.159a2.231 2.231 0 1 1-1.64-2.694 2.233 2.233 0 0 1 1.64 2.694"></path>
                                    <path fill="#be4617" d="M338.513 482.157a2.222 2.222 0 1 1-1.633-2.682 2.22 2.22 0 0 1 1.633 2.682"></path>
                                    <path fill="#bf4617" d="M338.5 482.155a2.212 2.212 0 1 1-1.628-2.673 2.213 2.213 0 0 1 1.628 2.673"></path>
                                    <path fill="#c14617" d="M338.494 482.153a2.2 2.2 0 1 1-1.618-2.659 2.2 2.2 0 0 1 1.618 2.659"></path>
                                    <path fill="#c24717" d="M338.486 482.149a2.193 2.193 0 1 1-1.614-2.648 2.195 2.195 0 0 1 1.614 2.648"></path>
                                    <path fill="#c34717" d="M338.476 482.149a2.184 2.184 0 1 1-1.606-2.638 2.184 2.184 0 0 1 1.606 2.638"></path>
                                    <path fill="#c54717" d="M338.467 482.147a2.175 2.175 0 1 1-1.6-2.627 2.173 2.173 0 0 1 1.6 2.627"></path>
                                    <path fill="#c64717" d="M338.458 482.144a2.164 2.164 0 1 1-1.591-2.616 2.164 2.164 0 0 1 1.591 2.616"></path>
                                    <path fill="#c84817" d="M338.448 482.142a2.156 2.156 0 1 1-1.583-2.6 2.154 2.154 0 0 1 1.583 2.6"></path>
                                    <path fill="#c94817" d="M338.438 482.141a2.145 2.145 0 1 1-1.575-2.594 2.143 2.143 0 0 1 1.575 2.594"></path>
                                    <path fill="#ca4817" d="M338.429 482.139a2.137 2.137 0 1 1-1.57-2.582 2.135 2.135 0 0 1 1.57 2.582"></path>
                                    <path fill="#cc4817" d="M338.421 482.135a2.127 2.127 0 1 1-1.564-2.571 2.13 2.13 0 0 1 1.564 2.571"></path>
                                    <path fill="#cd4817" d="M338.412 482.135a2.118 2.118 0 1 1-1.557-2.561 2.114 2.114 0 0 1 1.557 2.561"></path>
                                    <path fill="#ce4917" d="M338.4 482.131a2.108 2.108 0 1 1-1.551-2.547 2.11 2.11 0 0 1 1.551 2.547"></path>
                                    <path fill="#d04917" d="M338.394 482.129a2.1 2.1 0 1 1-1.543-2.538 2.1 2.1 0 0 1 1.543 2.538"></path>
                                    <path fill="#d14917" d="M338.385 482.127a2.09 2.09 0 1 1-1.535-2.526 2.09 2.09 0 0 1 1.535 2.526"></path>
                                    <path fill="#d24917" d="M338.375 482.125a2.081 2.081 0 1 1-1.527-2.515 2.08 2.08 0 0 1 1.527 2.515"></path>
                                    <path fill="#d44916" d="M338.368 482.123a2.072 2.072 0 1 1-1.524-2.5 2.07 2.07 0 0 1 1.524 2.5"></path>
                                    <path fill="#d54a16" d="M338.358 482.121a2.062 2.062 0 1 1-1.516-2.491 2.06 2.06 0 0 1 1.516 2.491"></path>
                                    <path fill="#d64a16" d="M338.351 482.119a2.054 2.054 0 1 1-1.511-2.482 2.056 2.056 0 0 1 1.511 2.482"></path>
                                    <path fill="#d84a16" d="M338.341 482.115a2.044 2.044 0 1 1-1.5-2.469 2.045 2.045 0 0 1 1.5 2.469"></path>
                                    <path fill="#d94a16" d="M338.331 482.113a2.035 2.035 0 1 1-1.495-2.457 2.035 2.035 0 0 1 1.495 2.457"></path>
                                    <path fill="#da4a16" d="M338.322 482.111a2.024 2.024 0 1 1-1.488-2.445 2.026 2.026 0 0 1 1.488 2.445"></path>
                                    <path fill="#db4b16" d="M338.312 482.109a2.015 2.015 0 1 1-1.482-2.433 2.015 2.015 0 0 1 1.482 2.433"></path>
                                    <path fill="#dd4b16" d="M338.3 482.107a2.005 2.005 0 1 1-1.475-2.424 2.006 2.006 0 0 1 1.475 2.424"></path>
                                    <path fill="#de4b16" d="M338.293 482.1a2 2 0 1 1-1.467-2.412 1.994 1.994 0 0 1 1.467 2.412"></path>
                                    <path fill="#df4b16" d="M338.285 482.1a1.987 1.987 0 1 1-1.46-2.4 1.987 1.987 0 0 1 1.46 2.4"></path>
                                    <path fill="#e04b16" d="M338.276 482.1a1.978 1.978 0 1 1-1.455-2.39 1.976 1.976 0 0 1 1.455 2.39"></path>
                                    <path fill="#e24c16" d="M338.267 482.1a1.968 1.968 0 1 1-1.446-2.378 1.97 1.97 0 0 1 1.446 2.378"></path>
                                    <path fill="#e34c16" d="M338.257 482.1a1.958 1.958 0 1 1-1.438-2.367 1.956 1.956 0 0 1 1.438 2.367"></path>
                                    <path fill="#e44c16" d="M338.249 482.093a1.95 1.95 0 1 1-1.434-2.357 1.95 1.95 0 0 1 1.434 2.357"></path>
                                    <path fill="#e54c16" d="M338.239 482.093a1.94 1.94 0 1 1-1.426-2.345 1.94 1.94 0 0 1 1.426 2.345"></path>
                                    <path fill="#e64d16" d="M338.232 482.089a1.932 1.932 0 1 1-1.421-2.333 1.935 1.935 0 0 1 1.421 2.333"></path>
                                    <path fill="#e74d16" d="M338.223 482.087a1.922 1.922 0 1 1-1.414-2.321 1.926 1.926 0 0 1 1.414 2.321"></path>
                                    <path fill="#e74d16" d="M338.213 482.085a1.913 1.913 0 1 1-1.407-2.311 1.91 1.91 0 0 1 1.407 2.311"></path>
                                    <path fill="#e74d16" d="M338.2 482.083a1.9 1.9 0 1 1-1.4-2.3 1.9 1.9 0 0 1 1.4 2.3"></path>
                                    <path fill="#e74e16" d="M338.2 482.081a1.9 1.9 0 1 1-1.395-2.293 1.9 1.9 0 0 1 1.395 2.293"></path>
                                    <path fill="#e74f16" d="M338.19 482.079a1.89 1.89 0 1 1-1.39-2.279 1.89 1.89 0 0 1 1.39 2.279"></path>
                                    <path fill="#e84f17" d="M338.183 482.077a1.882 1.882 0 1 1-1.383-2.277 1.884 1.884 0 0 1 1.383 2.277"></path>
                                    <path fill="#e85017" d="M338.175 482.077a1.873 1.873 0 1 1-1.377-2.265 1.876 1.876 0 0 1 1.377 2.265"></path>
                                    <path fill="#e85117" d="M338.169 482.073a1.866 1.866 0 1 1-1.373-2.255 1.87 1.87 0 0 1 1.373 2.255"></path>
                                    <path fill="#e85217" d="M338.159 482.073a1.858 1.858 0 1 1-1.367-2.245 1.86 1.86 0 0 1 1.367 2.245"></path>
                                    <path fill="#e85218" d="M338.151 482.069a1.85 1.85 0 1 1-1.359-2.235 1.85 1.85 0 0 1 1.359 2.235"></path>
                                    <path fill="#e85318" d="M338.145 482.069a1.843 1.843 0 1 1-1.355-2.227 1.84 1.84 0 0 1 1.355 2.227"></path>
                                    <path fill="#e85418" d="M338.137 482.067a1.835 1.835 0 1 1-1.349-2.217 1.837 1.837 0 0 1 1.349 2.217"></path>
                                    <path fill="#e95519" d="M338.131 482.064a1.828 1.828 0 1 1-1.345-2.207 1.83 1.83 0 0 1 1.345 2.207"></path>
                                    <path fill="#e95619" d="M338.123 482.064a1.82 1.82 0 1 1-1.339-2.2 1.82 1.82 0 0 1 1.339 2.2"></path>
                                    <path fill="#e95619" d="M338.115 482.062a1.813 1.813 0 1 1-1.333-2.192 1.813 1.813 0 0 1 1.333 2.192"></path>
                                    <path fill="#e9571a" d="M338.107 482.06a1.8 1.8 0 1 1-1.325-2.182 1.8 1.8 0 0 1 1.325 2.182"></path>
                                    <path fill="#e9581a" d="M338.1 482.056a1.8 1.8 0 1 1-1.321-2.17 1.8 1.8 0 0 1 1.321 2.17"></path>
                                    <path fill="#e9591b" d="M338.093 482.056a1.789 1.789 0 1 1-1.316-2.161 1.79 1.79 0 0 1 1.316 2.161"></path>
                                    <path fill="#e9591b" d="M338.085 482.054a1.781 1.781 0 1 1-1.31-2.151 1.78 1.78 0 0 1 1.31 2.151"></path>
                                    <path fill="#ea5a1c" d="M338.079 482.052a1.774 1.774 0 1 1-1.306-2.142 1.774 1.774 0 0 1 1.306 2.142"></path>
                                    <path fill="#ea5b1c" d="M338.069 482.051a1.765 1.765 0 1 1-1.3-2.135 1.76 1.76 0 0 1 1.3 2.135"></path>
                                    <path fill="#ea5c1c" d="M338.063 482.049a1.758 1.758 0 1 1-1.292-2.125 1.756 1.756 0 0 1 1.292 2.125"></path>
                                    <path fill="#ea5c1d" d="M338.054 482.047a1.75 1.75 0 1 1-1.285-2.115 1.75 1.75 0 0 1 1.285 2.115"></path>
                                    <path fill="#ea5d1d" d="M338.047 482.045a1.743 1.743 0 1 1-1.28-2.106 1.74 1.74 0 0 1 1.28 2.106"></path>
                                    <path fill="#ea5e1e" d="M338.041 482.043a1.736 1.736 0 1 1-1.275-2.1 1.736 1.736 0 0 1 1.275 2.1"></path>
                                    <path fill="#ea5f1e" d="M338.033 482.041a1.727 1.727 0 1 1-1.269-2.088 1.73 1.73 0 0 1 1.269 2.088"></path>
                                    <path fill="#ea5f1f" d="M338.025 482.039a1.72 1.72 0 1 1-1.263-2.079 1.72 1.72 0 0 1 1.263 2.079"></path>
                                    <path fill="#eb601f" d="M338.017 482.037a1.712 1.712 0 1 1-1.259-2.067 1.71 1.71 0 0 1 1.259 2.067"></path>
                                    <path fill="#eb6120" d="M338.012 482.035a1.705 1.705 0 1 1-1.254-2.059 1.706 1.706 0 0 1 1.254 2.059"></path>
                                    <path fill="#eb6220" d="M338 482.033a1.7 1.7 0 1 1-1.247-2.05 1.7 1.7 0 0 1 1.247 2.05"></path>
                                    <path fill="#eb6221" d="M338 482.033a1.69 1.69 0 1 1-1.243-2.042 1.69 1.69 0 0 1 1.243 2.042"></path>
                                    <path fill="#eb6321" d="M337.987 482.029a1.68 1.68 0 1 1-1.235-2.029 1.68 1.68 0 0 1 1.235 2.029"></path>
                                    <path fill="#eb6422" d="M337.981 482.029a1.674 1.674 0 1 1-1.231-2.023 1.676 1.676 0 0 1 1.231 2.023"></path>
                                    <path fill="#eb6522" d="M337.972 482.025a1.665 1.665 0 1 1-1.224-2.011 1.665 1.665 0 0 1 1.224 2.011"></path>
                                    <path fill="#eb6523" d="M337.964 482.025a1.658 1.658 0 1 1-1.218-2 1.657 1.657 0 0 1 1.218 2"></path>
                                    <path fill="#ec6623" d="M337.959 482.023a1.651 1.651 0 1 1-1.215-1.994 1.65 1.65 0 0 1 1.215 1.994"></path>
                                    <path fill="#ec6724" d="M337.951 482.021a1.643 1.643 0 1 1-1.209-1.984 1.646 1.646 0 0 1 1.209 1.984"></path>
                                    <path fill="#ec6825" d="M337.943 482.019a1.635 1.635 0 1 1-1.2-1.976 1.634 1.634 0 0 1 1.2 1.976"></path>
                                    <path fill="#ec6925" d="M337.935 482.016a1.627 1.627 0 1 1-1.2-1.966 1.63 1.63 0 0 1 1.2 1.966"></path>
                                    <path fill="#ec6926" d="M337.93 482.016a1.621 1.621 0 1 1-1.192-1.958 1.625 1.625 0 0 1 1.192 1.958"></path>
                                    <path fill="#ec6a26" d="M337.92 482.014a1.611 1.611 0 1 1-1.186-1.949 1.61 1.61 0 0 1 1.186 1.949"></path>
                                    <path fill="#ed6b27" d="M337.915 482.012a1.605 1.605 0 1 1-1.182-1.937 1.61 1.61 0 0 1 1.182 1.937"></path>
                                    <path fill="#ed6c27" d="M337.9 482.01a1.6 1.6 0 1 1-1.172-1.929 1.6 1.6 0 0 1 1.172 1.929"></path>
                                    <path fill="#ed6c28" d="M337.9 482.008a1.588 1.588 0 1 1-1.166-1.919 1.59 1.59 0 0 1 1.166 1.919"></path>
                                    <path fill="#ed6d29" d="M337.89 482.006a1.58 1.58 0 1 1-1.161-1.91 1.58 1.58 0 0 1 1.161 1.91"></path>
                                    <path fill="#ed6e29" d="M337.882 482a1.573 1.573 0 1 1-1.156-1.9 1.57 1.57 0 0 1 1.156 1.9"></path>
                                    <path fill="#ed6f2a" d="M337.876 482a1.566 1.566 0 1 1-1.15-1.891 1.565 1.565 0 0 1 1.15 1.891"></path>
                                    <path fill="#ed702a" d="M337.869 482a1.558 1.558 0 1 1-1.145-1.884 1.556 1.556 0 0 1 1.145 1.884"></path>
                                    <path fill="#ee702b" d="M337.861 482a1.55 1.55 0 1 1-1.139-1.874 1.553 1.553 0 0 1 1.139 1.874"></path>
                                    <path fill="#ee712c" d="M337.853 482a1.542 1.542 0 1 1-1.133-1.864 1.546 1.546 0 0 1 1.133 1.864"></path>
                                    <path fill="#ee722c" d="M337.848 481.995a1.536 1.536 0 1 1-1.13-1.853 1.54 1.54 0 0 1 1.13 1.853"></path>
                                    <path fill="#ee732d" d="M337.838 481.995a1.526 1.526 0 1 1-1.122-1.846 1.527 1.527 0 0 1 1.122 1.846"></path>
                                    <path fill="#ee732d" d="M337.83 481.991a1.519 1.519 0 1 1-1.116-1.834 1.52 1.52 0 0 1 1.116 1.834"></path>
                                    <path fill="#ee742e" d="M337.823 481.989a1.512 1.512 0 1 1-1.109-1.824 1.51 1.51 0 0 1 1.109 1.824"></path>
                                    <path fill="#ee752f" d="M337.815 481.989a1.5 1.5 0 1 1-1.105-1.818 1.5 1.5 0 0 1 1.105 1.818"></path>
                                    <path fill="#ef762f" d="M337.809 481.987a1.5 1.5 0 1 1-1.1-1.808 1.5 1.5 0 0 1 1.1 1.808"></path>
                                    <path fill="#ef7730" d="M337.8 481.985a1.488 1.488 0 1 1-1.094-1.8 1.49 1.49 0 0 1 1.094 1.8"></path>
                                    <path fill="#ef7731" d="M337.794 481.981a1.482 1.482 0 1 1-1.09-1.788 1.48 1.48 0 0 1 1.09 1.788"></path>
                                    <path fill="#ef7831" d="M337.786 481.981a1.474 1.474 0 1 1-1.086-1.781 1.473 1.473 0 0 1 1.086 1.781"></path>
                                    <path fill="#ef7932" d="M337.779 481.98a1.466 1.466 0 1 1-1.079-1.771 1.466 1.466 0 0 1 1.079 1.771"></path>
                                    <path fill="#ef7a33" d="M337.771 481.977a1.458 1.458 0 1 1-1.071-1.76 1.46 1.46 0 0 1 1.071 1.76"></path>
                                    <path fill="#ef7b33" d="M337.764 481.976a1.45 1.45 0 1 1-1.068-1.751 1.45 1.45 0 0 1 1.068 1.751"></path>
                                    <path fill="#f07b34" d="M337.758 481.974a1.443 1.443 0 1 1-1.062-1.743 1.446 1.446 0 0 1 1.062 1.743"></path>
                                    <path fill="#f07c35" d="M337.748 481.972a1.435 1.435 0 1 1-1.054-1.733 1.43 1.43 0 0 1 1.054 1.733"></path>
                                    <path fill="#f07d35" d="M337.742 481.97a1.427 1.427 0 1 1-1.052-1.723 1.43 1.43 0 0 1 1.052 1.723"></path>
                                    <path fill="#f07e36" d="M337.733 481.968a1.419 1.419 0 1 1-1.045-1.715 1.416 1.416 0 0 1 1.045 1.715"></path>
                                    <path fill="#f07f37" d="M337.726 481.966a1.411 1.411 0 1 1-1.039-1.705 1.413 1.413 0 0 1 1.039 1.705"></path>
                                    <path fill="#f07f38" d="M337.718 481.964a1.4 1.4 0 1 1-1.031-1.695 1.4 1.4 0 0 1 1.031 1.695"></path>
                                    <path fill="#f08038" d="M337.712 481.962a1.4 1.4 0 1 1-1.027-1.687 1.4 1.4 0 0 1 1.027 1.687"></path>
                                    <path fill="#f18139" d="M337.7 481.96a1.389 1.389 0 1 1-1.02-1.677 1.39 1.39 0 0 1 1.02 1.677"></path>
                                    <path fill="#f1823a" d="M337.7 481.959a1.38 1.38 0 1 1-1.014-1.668 1.38 1.38 0 0 1 1.014 1.668"></path>
                                    <path fill="#f1833b" d="M337.689 481.957a1.374 1.374 0 1 1-1.009-1.658 1.374 1.374 0 0 1 1.009 1.658"></path>
                                    <path fill="#f1843b" d="M337.682 481.955a1.365 1.365 0 1 1-1-1.648 1.366 1.366 0 0 1 1 1.648"></path>
                                    <path fill="#f1853c" d="M337.676 481.955a1.359 1.359 0 1 1-1-1.641 1.36 1.36 0 0 1 1 1.641"></path>
                                    <path fill="#f2853d" d="M337.666 481.951a1.35 1.35 0 1 1-.992-1.63 1.35 1.35 0 0 1 .992 1.63"></path>
                                    <path fill="#f2863d" d="M337.658 481.949a1.342 1.342 0 1 1-.986-1.62 1.343 1.343 0 0 1 .986 1.62"></path>
                                    <path fill="#f2873e" d="M337.65 481.947a1.334 1.334 0 1 1-.98-1.612 1.33 1.33 0 0 1 .98 1.612"></path>
                                    <path fill="#f2883f" d="M337.643 481.947a1.327 1.327 0 1 1-.975-1.6 1.326 1.326 0 0 1 .975 1.6"></path>
                                    <path fill="#f28940" d="M337.636 481.945a1.32 1.32 0 1 1-.97-1.594 1.32 1.32 0 0 1 .97 1.594"></path>
                                    <path fill="#f28a41" d="M337.628 481.943a1.312 1.312 0 1 1-.962-1.585 1.313 1.313 0 0 1 .962 1.585"></path>
                                    <path fill="#f38b41" d="M337.622 481.941a1.3 1.3 0 1 1-.96-1.576 1.3 1.3 0 0 1 .96 1.576"></path>
                                    <path fill="#f38b42" d="M337.614 481.939a1.3 1.3 0 1 1-.952-1.568 1.3 1.3 0 0 1 .952 1.568"></path>
                                    <path fill="#f38c43" d="M337.606 481.938a1.289 1.289 0 1 1-.948-1.559 1.287 1.287 0 0 1 .948 1.559"></path>
                                    <path fill="#f38d44" d="M337.6 481.936a1.28 1.28 0 1 1-.943-1.547 1.28 1.28 0 0 1 .943 1.547"></path>
                                    <path fill="#f38e44" d="M337.592 481.934a1.274 1.274 0 1 1-.936-1.538 1.28 1.28 0 0 1 .936 1.538"></path>
                                    <path fill="#f38f45" d="M337.584 481.932a1.265 1.265 0 1 1-.932-1.528 1.267 1.267 0 0 1 .932 1.528"></path>
                                    <path fill="#f49046" d="M337.576 481.93a1.257 1.257 0 1 1-.924-1.519 1.256 1.256 0 0 1 .924 1.519"></path>
                                    <path fill="#f49147" d="M337.568 481.928a1.249 1.249 0 1 1-.918-1.511 1.247 1.247 0 0 1 .918 1.511"></path>
                                    <path fill="#f49247" d="M337.56 481.926a1.242 1.242 0 1 1-.912-1.5 1.24 1.24 0 0 1 .912 1.5"></path>
                                    <path fill="#f49348" d="M337.554 481.924a1.235 1.235 0 1 1-.908-1.491 1.236 1.236 0 0 1 .908 1.491"></path>
                                    <path fill="#f49349" d="M337.546 481.922a1.226 1.226 0 1 1-.9-1.482 1.224 1.224 0 0 1 .9 1.482"></path>
                                    <path fill="#f4944a" d="M337.54 481.92a1.22 1.22 0 1 1-.9-1.472 1.22 1.22 0 0 1 .9 1.472"></path>
                                    <path fill="#f5954b" d="M337.532 481.92a1.211 1.211 0 1 1-.892-1.465 1.215 1.215 0 0 1 .892 1.465"></path>
                                    <path fill="#f5964b" d="M337.524 481.916a1.2 1.2 0 1 1-.884-1.453 1.207 1.207 0 0 1 .884 1.453"></path>
                                    <path fill="#f5974c" d="M337.515 481.914a1.195 1.195 0 1 1-.877-1.443 1.195 1.195 0 0 1 .877 1.443"></path>
                                    <path fill="#f5984d" d="M337.509 481.912a1.188 1.188 0 1 1-.873-1.433 1.186 1.186 0 0 1 .873 1.433"></path>
                                    <path fill="#f5994e" d="M337.5 481.911a1.182 1.182 0 1 1-.87-1.425 1.183 1.183 0 0 1 .87 1.425"></path>
                                    <path fill="#f59a4f" d="M337.494 481.911a1.173 1.173 0 1 1-.862-1.417 1.17 1.17 0 0 1 .862 1.417"></path>
                                    <path fill="#f59a4f" d="M337.486 481.909a1.165 1.165 0 1 1-.856-1.409 1.165 1.165 0 0 1 .856 1.409"></path>
                                    <path fill="#f59a4f" d="M337.48 481.907a1.159 1.159 0 1 1-.85-1.4 1.16 1.16 0 0 1 .85 1.4"></path>
                                    <path fill="#f59a50" d="M337.476 481.9a1.155 1.155 0 1 1-.848-1.394 1.156 1.156 0 0 1 .848 1.394"></path>
                                    <path fill="#f69b50" d="M337.471 481.9a1.15 1.15 0 1 1-.843-1.388 1.147 1.147 0 0 1 .843 1.388"></path>
                                    <path fill="#f69b51" d="M337.465 481.9a1.144 1.144 0 1 1-.839-1.383 1.144 1.144 0 0 1 .839 1.383"></path>
                                    <path fill="#f69c51" d="M337.462 481.9a1.139 1.139 0 1 1-.838-1.375 1.14 1.14 0 0 1 .838 1.375"></path>
                                    <path fill="#f69c52" d="M337.456 481.9a1.134 1.134 0 1 1-.834-1.371 1.13 1.13 0 0 1 .834 1.371"></path>
                                    <path fill="#f69c53" d="M337.45 481.9a1.128 1.128 0 1 1-.83-1.365 1.13 1.13 0 0 1 .83 1.365"></path>
                                    <path fill="#f69d53" d="M337.446 481.9a1.122 1.122 0 1 1-.826-1.355 1.123 1.123 0 0 1 .826 1.355"></path>
                                    <path fill="#f69d54" d="M337.44 481.9a1.118 1.118 0 1 1-.822-1.352 1.12 1.12 0 0 1 .822 1.352"></path>
                                    <path fill="#f69e55" d="M337.436 481.895a1.113 1.113 0 1 1-.818-1.344 1.115 1.115 0 0 1 .818 1.344"></path>
                                    <path fill="#f69e55" d="M337.429 481.895a1.107 1.107 0 1 1-.813-1.338 1.1 1.1 0 0 1 .813 1.338"></path>
                                    <path fill="#f69f56" d="M337.425 481.894a1.1 1.1 0 1 1-.811-1.333 1.1 1.1 0 0 1 .811 1.333"></path>
                                    <path fill="#f69f57" d="M337.419 481.892a1.1 1.1 0 1 1-.8-1.326 1.093 1.093 0 0 1 .8 1.326"></path>
                                    <path fill="#f69f57" d="M337.414 481.892a1.091 1.091 0 1 1-.8-1.32 1.087 1.087 0 0 1 .8 1.32"></path>
                                    <path fill="#f6a058" d="M337.41 481.89a1.086 1.086 0 1 1-.8-1.312 1.086 1.086 0 0 1 .8 1.312"></path>
                                    <path fill="#f7a059" d="M337.4 481.888a1.08 1.08 0 1 1-.794-1.306 1.083 1.083 0 0 1 .794 1.306"></path>
                                    <path fill="#f7a159" d="M337.4 481.888a1.075 1.075 0 1 1-.788-1.3 1.075 1.075 0 0 1 .788 1.3"></path>
                                    <path fill="#f7a15a" d="M337.394 481.886a1.07 1.07 0 1 1-.788-1.293 1.067 1.067 0 0 1 .788 1.293"></path>
                                    <path fill="#f7a25b" d="M337.389 481.884a1.066 1.066 0 1 1-.783-1.287 1.067 1.067 0 0 1 .783 1.287"></path>
                                    <path fill="#f7a25b" d="M337.383 481.884a1.06 1.06 0 1 1-.779-1.282 1.06 1.06 0 0 1 .779 1.282"></path>
                                    <path fill="#f7a25c" d="M337.379 481.882a1.055 1.055 0 1 1-.775-1.274 1.05 1.05 0 0 1 .775 1.274"></path>
                                    <path fill="#f7a35d" d="M337.373 481.88a1.049 1.049 0 1 1-.772-1.268 1.05 1.05 0 0 1 .772 1.268"></path>
                                    <path fill="#f7a35d" d="M337.37 481.88a1.045 1.045 0 1 1-.769-1.262 1.046 1.046 0 0 1 .769 1.262"></path>
                                    <path fill="#f7a45e" d="M337.362 481.878a1.038 1.038 0 1 1-.763-1.254 1.04 1.04 0 0 1 .763 1.254"></path>
                                    <path fill="#f7a45f" d="M337.358 481.876a1.033 1.033 0 1 1-.759-1.248 1.034 1.034 0 0 1 .759 1.248"></path>
                                    <path fill="#f7a560" d="M337.352 481.876a1.028 1.028 0 1 1-.753-1.242 1.026 1.026 0 0 1 .753 1.242"></path>
                                    <path fill="#f7a560" d="M337.347 481.874a1.022 1.022 0 1 1-.75-1.235 1.02 1.02 0 0 1 .75 1.235"></path>
                                    <path fill="#f8a661" d="M337.343 481.872a1.017 1.017 0 1 1-.747-1.228 1.02 1.02 0 0 1 .747 1.228"></path>
                                    <path fill="#f8a662" d="M337.337 481.872a1.013 1.013 0 1 1-.741-1.224 1.01 1.01 0 0 1 .741 1.224"></path>
                                    <path fill="#f8a762" d="M337.333 481.87a1.008 1.008 0 1 1-.739-1.216 1.007 1.007 0 0 1 .739 1.216"></path>
                                    <path fill="#f8a763" d="M337.327 481.868a1 1 0 1 1-.735-1.21 1 1 0 0 1 .735 1.21"></path>
                                    <path fill="#f8a864" d="M337.324 481.868a1 1 0 1 1-.734-1.2 1 1 0 0 1 .734 1.2"></path>
                                    <path fill="#f8a865" d="M337.318 481.867a.992.992 0 1 1-.728-1.2.993.993 0 0 1 .728 1.2"></path>
                                    <path fill="#f8a965" d="M337.312 481.865a.986.986 0 1 1-.724-1.189.985.985 0 0 1 .724 1.189"></path>
                                    <path fill="#f8a966" d="M337.309 481.863a.981.981 0 1 1-.723-1.183.983.983 0 0 1 .723 1.183"></path>
                                    <path fill="#f8aa67" d="M337.3 481.863a.976.976 0 1 1-.717-1.178.975.975 0 0 1 .717 1.178"></path>
                                    <path fill="#f8aa68" d="M337.3 481.861a.97.97 0 1 1-.713-1.171.97.97 0 0 1 .713 1.171"></path>
                                    <path fill="#f8ab68" d="M337.293 481.861a.965.965 0 1 1-.711-1.167.967.967 0 0 1 .711 1.167"></path>
                                    <path fill="#f9ab69" d="M337.287 481.859a.96.96 0 1 1-.7-1.159.96.96 0 0 1 .7 1.159"></path>
                                    <path fill="#f9ac6a" d="M337.281 481.859a.954.954 0 1 1-.7-1.155.95.95 0 0 1 .7 1.155"></path>
                                    <path fill="#f9ac6b" d="M337.276 481.856a.948.948 0 1 1-.7-1.146.946.946 0 0 1 .7 1.146"></path>
                                    <path fill="#f9ad6c" d="M337.272 481.856a.945.945 0 1 1-.694-1.142.943.943 0 0 1 .694 1.142"></path>
                                    <path fill="#f9ad6c" d="M337.267 481.856a.939.939 0 1 1-.691-1.136.94.94 0 0 1 .691 1.136"></path>
                                    <path fill="#f9ae6d" d="M337.261 481.854a.933.933 0 1 1-.685-1.128.93.93 0 0 1 .685 1.128"></path>
                                    <path fill="#f9ae6e" d="M337.257 481.854a.929.929 0 1 1-.685-1.123.927.927 0 0 1 .685 1.123"></path>
                                    <path fill="#f9af6f" d="M337.251 481.852a.923.923 0 1 1-.679-1.118.92.92 0 0 1 .679 1.118"></path>
                                    <path fill="#f9af70" d="M337.245 481.85a.917.917 0 1 1-.675-1.11.914.914 0 0 1 .675 1.11"></path>
                                    <path fill="#f9b070" d="M337.241 481.848a.912.912 0 1 1-.671-1.1.91.91 0 0 1 .671 1.1"></path>
                                    <path fill="#f9b071" d="M337.235 481.848a.907.907 0 1 1-.667-1.1.9.9 0 0 1 .667 1.1"></path>
                                    <path fill="#f9b172" d="M337.23 481.846a.9.9 0 1 1-.662-1.09.9.9 0 0 1 .662 1.09"></path>
                                    <path fill="#f9b173" d="M337.226 481.844a.9.9 0 1 1-.66-1.082.9.9 0 0 1 .66 1.082"></path>
                                    <path fill="#f9b274" d="M337.221 481.844a.892.892 0 1 1-.655-1.078.893.893 0 0 1 .655 1.078"></path>
                                    <path fill="#fab274" d="M337.217 481.842a.887.887 0 1 1-.655-1.071.89.89 0 0 1 .655 1.071"></path>
                                    <path fill="#fab375" d="M337.211 481.842a.881.881 0 1 1-.649-1.066.88.88 0 0 1 .649 1.066"></path>
                                    <path fill="#fab376" d="M337.2 481.84a.876.876 0 1 1-.645-1.06.877.877 0 0 1 .645 1.06"></path>
                                    <path fill="#fab477" d="M337.2 481.838a.871.871 0 1 1-.641-1.052.873.873 0 0 1 .641 1.052"></path>
                                    <path fill="#fab478" d="M337.193 481.836a.863.863 0 1 1-.633-1.044.86.86 0 0 1 .633 1.044"></path>
                                    <path fill="#fab579" d="M337.189 481.836a.86.86 0 1 1-.63-1.038.86.86 0 0 1 .63 1.038"></path>
                                    <path fill="#fab57a" d="M337.184 481.834a.854.854 0 1 1-.627-1.032.855.855 0 0 1 .627 1.032"></path>
                                    <path fill="#fab67a" d="M337.179 481.834a.849.849 0 1 1-.624-1.026.85.85 0 0 1 .624 1.026"></path>
                                    <path fill="#fab77b" d="M337.175 481.832a.843.843 0 1 1-1.639-.4.843.843 0 0 1 1.639.4"></path>
                                    <path fill="#fab77c" d="M337.169 481.83a.838.838 0 1 1-.616-1.013.84.84 0 0 1 .616 1.013"></path>
                                    <path fill="#fab87d" d="M337.163 481.828a.832.832 0 1 1-.611-1.006.834.834 0 0 1 .611 1.006"></path>
                                    <path fill="#fab87e" d="M337.159 481.828a.827.827 0 1 1-.607-1 .83.83 0 0 1 .607 1"></path>
                                    <path fill="#fab97f" d="M337.153 481.826a.822.822 0 1 1-.6-.994.82.82 0 0 1 .6.994"></path>
                                    <path fill="#fab980" d="M337.149 481.824a.817.817 0 1 1-.6-.986.82.82 0 0 1 .6.986"></path>
                                    <path fill="#fbba81" d="M337.143 481.824a.812.812 0 1 1-.6-.98.81.81 0 0 1 .6.98"></path>
                                    <path fill="#fbba82" d="M337.139 481.822a.807.807 0 1 1-.593-.974.81.81 0 0 1 .593.974"></path>
                                    <path fill="#fbbb82" d="M337.135 481.82a.8.8 0 1 1-.591-.966.8.8 0 0 1 .591.966"></path>
                                    <path fill="#fbbb83" d="M337.129 481.82a.8.8 0 1 1-.585-.961.8.8 0 0 1 .585.961"></path>
                                    <path fill="#fbbc84" d="M337.125 481.819a.792.792 0 1 1-1.539-.375.792.792 0 0 1 1.539.375"></path>
                                    <path fill="#fbbd85" d="M337.119 481.817a.786.786 0 1 1-.579-.949.786.786 0 0 1 .579.949"></path>
                                    <path fill="#fbbd86" d="M337.113 481.817a.781.781 0 1 1-.575-.943.783.783 0 0 1 .575.943"></path>
                                    <path fill="#fbbe87" d="M337.107 481.815a.775.775 0 1 1-.569-.935.774.774 0 0 1 .569.935"></path>
                                    <path fill="#fbbe88" d="M337.1 481.815a.77.77 0 1 1-.567-.931.77.77 0 0 1 .567.931"></path>
                                    <path fill="#fbbf89" d="M337.1 481.814a.765.765 0 1 1-.565-.924.763.763 0 0 1 .565.924"></path>
                                    <path fill="#fbbf8a" d="M337.093 481.814a.759.759 0 1 1-.559-.92.76.76 0 0 1 .559.92"></path>
                                    <path fill="#fbc08b" d="M337.089 481.812a.755.755 0 1 1-.557-.913.755.755 0 0 1 .557.913"></path>
                                    <path fill="#fbc08c" d="M337.083 481.81a.749.749 0 1 1-.551-.9.75.75 0 0 1 .551.9"></path>
                                    <path fill="#fcc18d" d="M337.077 481.81a.743.743 0 1 1-.547-.9.744.744 0 0 1 .547.9"></path>
                                    <path fill="#fcc28e" d="M337.073 481.808a.739.739 0 1 1-.545-.894.74.74 0 0 1 .545.894"></path>
                                    <path fill="#fcc28f" d="M337.067 481.806a.734.734 0 1 1-.539-.886.733.733 0 0 1 .539.886"></path>
                                    <path fill="#fcc390" d="M337.061 481.806a.728.728 0 1 1-.533-.88.725.725 0 0 1 .533.88"></path>
                                    <path fill="#fcc391" d="M337.058 481.8a.724.724 0 0 1-1.406-.343.724.724 0 0 1 1.406.343"></path>
                                    <path fill="#fcc492" d="M337.052 481.8a.718.718 0 1 1-.528-.866.72.72 0 0 1 .528.866"></path>
                                    <path fill="#fcc493" d="M337.047 481.8a.713.713 0 1 1-.525-.861.714.714 0 0 1 .525.861"></path>
                                    <path fill="#fcc594" d="M337.041 481.8a.707.707 0 1 1-.519-.855.71.71 0 0 1 .519.855"></path>
                                    <path fill="#fcc695" d="M337.037 481.8a.7.7 0 1 1-.519-.847.7.7 0 0 1 .519.847"></path>
                                    <path fill="#fcc696" d="M337.031 481.8a.7.7 0 1 1-.513-.841.7.7 0 0 1 .513.841"></path>
                                    <path fill="#fcc797" d="M337.025 481.8a.69.69 0 1 1-.507-.836.69.69 0 0 1 .507.836"></path>
                                    <path fill="#fcc798" d="M337.021 481.794a.686.686 0 1 1-.5-.828.686.686 0 0 1 .5.828"></path>
                                    <path fill="#fcc899" d="M337.016 481.794a.681.681 0 1 1-.5-.822.68.68 0 0 1 .5.822"></path>
                                    <path fill="#fcc89a" d="M337.01 481.792a.675.675 0 1 1-.495-.815.676.676 0 0 1 .495.815"></path>
                                    <path fill="#fcc99b" d="M337.007 481.79a.675.675 0 0 1-.812.493.67.67 0 1 1 .812-.493"></path>
                                    <path fill="#fdca9c" d="M337 481.79a.665.665 0 1 1-.488-.8.663.663 0 0 1 .488.8"></path>
                                    <path fill="#fdca9d" d="M336.995 481.788a.659.659 0 1 1-.484-.795.66.66 0 0 1 .484.795"></path>
                                    <path fill="#fdcb9e" d="M336.991 481.786a.654.654 0 1 1-.482-.787.655.655 0 0 1 .482.787"></path>
                                    <path fill="#fdcb9f" d="M336.985 481.786a.649.649 0 1 1-.476-.786.647.647 0 0 1 .476.786"></path>
                                    <path fill="#fdcca0" d="M336.979 481.784a.643.643 0 1 1-.472-.778.64.64 0 0 1 .472.778"></path>
                                    <path fill="#fdcda1" d="M336.974 481.782a.638.638 0 1 1-.469-.77.64.64 0 0 1 .469.77"></path>
                                    <path fill="#fdcda2" d="M336.97 481.782a.634.634 0 1 1-.466-.764.63.63 0 0 1 .466.764"></path>
                                    <path fill="#fdcea3" d="M336.964 481.78a.628.628 0 1 1-.46-.759.624.624 0 0 1 .46.759"></path>
                                    <path fill="#fdcea4" d="M336.959 481.778a.622.622 0 1 1-.457-.751.62.62 0 0 1 .457.751"></path>
                                    <path fill="#fdcfa5" d="M336.955 481.778a.617.617 0 1 1-.455-.745.62.62 0 0 1 .455.745"></path>
                                    <path fill="#fdd0a6" d="M336.949 481.777a.612.612 0 1 1-.449-.74.61.61 0 0 1 .449.74"></path>
                                    <path fill="#fdd0a8" d="M336.943 481.777a.606.606 0 1 1-.445-.734.607.607 0 0 1 .445.734"></path>
                                    <path fill="#fdd1a9" d="M336.939 481.775a.6.6 0 1 1-.441-.726.6.6 0 0 1 .441.726"></path>
                                    <path fill="#fdd1aa" d="M336.934 481.775a.6.6 0 1 1-.438-.723.6.6 0 0 1 .438.723"></path>
                                    <path fill="#fdd2ab" d="M336.93 481.773a.592.592 0 1 1-.436-.715.59.59 0 0 1 .436.715"></path>
                                    <path fill="#fdd3ac" d="M336.924 481.771a.586.586 0 1 1-.43-.707.586.586 0 0 1 .43.707"></path>
                                    <path fill="#fdd3ad" d="M336.918 481.769a.58.58 0 1 1-.426-.7.58.58 0 0 1 .426.7"></path>
                                    <path fill="#fdd4ae" d="M336.915 481.769a.576.576 0 1 1-.425-.7.576.576 0 0 1 .425.7"></path>
                                    <path fill="#fdd4af" d="M336.907 481.768a.569.569 0 1 1-.419-.689.57.57 0 0 1 .419.689"></path>
                                    <path fill="#fdd5b0" d="M336.9 481.768a.565.565 0 1 1-.415-.685.567.567 0 0 1 .415.685"></path>
                                    <path fill="#fdd6b1" d="M336.9 481.766a.559.559 0 1 1-.411-.677.56.56 0 0 1 .411.677"></path>
                                    <path fill="#fed6b2" d="M336.892 481.764a.554.554 0 1 1-.406-.67.55.55 0 0 1 .406.67"></path>
                                    <path fill="#fed7b4" d="M336.888 481.762a.549.549 0 1 1-1.067-.258.549.549 0 0 1 1.067.258"></path>
                                    <path fill="#fed7b5" d="M336.882 481.762a.544.544 0 1 1-.4-.658.543.543 0 0 1 .4.658"></path>
                                    <path fill="#fed8b6" d="M336.876 481.76a.538.538 0 1 1-.4-.651.536.536 0 0 1 .4.651"></path>
                                    <path fill="#fed9b7" d="M336.872 481.76a.533.533 0 0 1-1.036-.253.533.533 0 1 1 1.036.253"></path>
                                    <path fill="#fed9b8" d="M336.867 481.758a.529.529 0 1 1-.389-.639.525.525 0 0 1 .389.639"></path>
                                    <path fill="#fedab9" d="M336.863 481.756a.523.523 0 1 1-.385-.631.525.525 0 0 1 .385.631"></path>
                                    <path fill="#fedaba" d="M336.857 481.754a.517.517 0 1 1-.379-.623.52.52 0 0 1 .379.623"></path>
                                    <path fill="#fedbbb" d="M336.851 481.754a.512.512 0 1 1-.375-.619.513.513 0 0 1 .375.619"></path>
                                    <path fill="#fedcbd" d="M336.848 481.752a.508.508 0 1 1-.373-.612.51.51 0 0 1 .373.612"></path>
                                    <path fill="#fedcbe" d="M336.84 481.75a.5.5 0 1 1-.367-.605.5.5 0 0 1 .367.605"></path>
                                    <path fill="#feddbf" d="M336.836 481.75a.5.5 0 1 1-.365-.6.5.5 0 0 1 .365.6"></path>
                                    <path fill="#fedec0" d="M336.83 481.748a.491.491 0 0 1-.954-.231.491.491 0 1 1 .954.231"></path>
                                    <path fill="#fedec1" d="M336.825 481.746a.485.485 0 1 1-.356-.585.483.483 0 0 1 .356.585"></path>
                                    <path fill="#fedfc2" d="M336.821 481.746a.48.48 0 1 1-.352-.579.48.48 0 0 1 .352.579"></path>
                                    <path fill="#fee0c4" d="M336.815 481.744a.475.475 0 1 1-.348-.573.473.473 0 0 1 .348.573"></path>
                                    <path fill="#fee0c5" d="M336.809 481.742a.469.469 0 1 1-.344-.565.47.47 0 0 1 .344.565"></path>
                                    <path fill="#fee1c6" d="M336.806 481.742a.465.465 0 1 1-.341-.561.464.464 0 0 1 .341.561"></path>
                                    <path fill="#fee2c7" d="M336.8 481.74a.461.461 0 1 1-.339-.554.46.46 0 0 1 .339.554"></path>
                                    <path fill="#ffe2c8" d="M336.8 481.74a.455.455 0 1 1-.335-.549.455.455 0 0 1 .335.549"></path>
                                    <path fill="#ffe3ca" d="M336.79 481.738a.449.449 0 1 1-.329-.541.446.446 0 0 1 .329.541"></path>
                                    <path fill="#ffe3cb" d="M336.786 481.738a.444.444 0 1 1-.326-.537.445.445 0 0 1 .326.537"></path>
                                    <path fill="#ffe4cc" d="M336.78 481.734a.438.438 0 1 1-.32-.527.436.436 0 0 1 .32.527"></path>
                                    <path fill="#ffe5cd" d="M336.775 481.734a.433.433 0 1 1-.319-.521.435.435 0 0 1 .319.521"></path>
                                    <path fill="#ffe5ce" d="M336.771 481.734a.43.43 0 0 1-.518.315.428.428 0 1 1 .518-.315"></path>
                                    <path fill="#ffe6d0" d="M336.766 481.732a.423.423 0 1 1-.312-.509.424.424 0 0 1 .312.509"></path>
                                    <path fill="#ffe7d1" d="M336.76 481.731a.417.417 0 1 1-.308-.5.416.416 0 0 1 .308.5"></path>
                                    <path fill="#ffe7d2" d="M336.754 481.731a.411.411 0 1 1-.3-.5.41.41 0 0 1 .3.5"></path>
                                    <path fill="#ffe8d3" d="M336.75 481.73a.408.408 0 0 1-.792-.194.408.408 0 1 1 .792.194"></path>
                                    <path fill="#ffe9d5" d="M336.744 481.727a.4.4 0 0 1-.78-.189.4.4 0 1 1 .78.189"></path>
                                    <path fill="#ffe9d6" d="M336.738 481.727a.4.4 0 1 1-.29-.48.393.393 0 0 1 .29.48"></path>
                                    <path fill="#ffead7" d="M336.734 481.726a.391.391 0 1 1-.286-.473.39.39 0 0 1 .286.473"></path>
                                    <path fill="#ffebd8" d="M336.729 481.724a.386.386 0 1 1-.283-.467.385.385 0 0 1 .283.467"></path>
                                    <path fill="#ffebda" d="M336.724 481.724a.381.381 0 1 1-.278-.461.383.383 0 0 1 .278.461"></path>
                                    <path fill="#ffecdb" d="M336.72 481.722a.375.375 0 0 1-.729-.178.37.37 0 0 1 .451-.275.376.376 0 0 1 .278.453"></path>
                                    <path fill="#ffeddc" d="M336.714 481.72a.37.37 0 0 1-.719-.174.37.37 0 1 1 .719.174"></path>
                                    <path fill="#ffedde" d="M336.708 481.72a.364.364 0 1 1-.268-.443.366.366 0 0 1 .268.443"></path>
                                    <path fill="#ffeedf" d="M336.7 481.718a.359.359 0 1 1-.264-.435.36.36 0 0 1 .264.435"></path>
                                    <path fill="#ffefe0" d="M336.7 481.716a.354.354 0 1 1-.26-.429.354.354 0 0 1 .26.429"></path>
                                    <path fill="#ffefe2" d="M336.692 481.716a.345.345 0 0 1-.42.254.348.348 0 1 1 .42-.254"></path>
                                    <path fill="#fff0e3" d="M336.687 481.714a.343.343 0 1 1-.251-.415.34.34 0 0 1 .251.415"></path>
                                    <path fill="#fff1e4" d="M336.684 481.712a.339.339 0 1 1-.25-.409.34.34 0 0 1 .25.409"></path>
                                    <path fill="#fff2e6" d="M336.678 481.712a.333.333 0 1 1-.245-.4.335.335 0 0 1 .245.4"></path>
                                    <path fill="#fff2e7" d="M336.672 481.71a.327.327 0 1 1-.239-.4.325.325 0 0 1 .239.4"></path>
                                    <path fill="#fff3e9" d="M336.668 481.708a.323.323 0 1 1-.237-.388.324.324 0 0 1 .237.388"></path>
                                    <path fill="#fff4ea" d="M336.662 481.708a.316.316 0 1 1-.231-.385.32.32 0 0 1 .231.385"></path>
                                    <path fill="#fff5eb" d="M336.656 481.706a.311.311 0 1 1-.227-.377.31.31 0 0 1 .227.377"></path>
                                    <path fill="#fff5ed" d="M336.652 481.7a.31.31 0 0 1-.371.226.306.306 0 1 1 .371-.226"></path>
                                    <path fill="#fff6ee" d="M336.646 481.7a.3.3 0 1 1-.585-.141.3.3 0 0 1 .366-.222.3.3 0 0 1 .219.363"></path>
                                    <path fill="#fff7f0" d="M336.642 481.7a.3.3 0 1 1-.217-.357.294.294 0 0 1 .217.357"></path>
                                    <path fill="#fff8f2" d="M336.638 481.7a.29.29 0 0 1-.353.214.29.29 0 1 1 .353-.214"></path>
                                    <path fill="#fff9f3" d="M336.632 481.7a.286.286 0 0 1-.345.211.29.29 0 0 1-.21-.347.286.286 0 0 1 .555.136"></path>
                                    <path fill="#fffaf5" d="M336.628 481.7a.284.284 0 0 1-.339.2.28.28 0 0 1-.206-.339.277.277 0 0 1 .338-.206.28.28 0 0 1 .207.345"></path>
                                    <path fill="#fffbf7" d="M336.62 481.7a.273.273 0 1 1-.2-.331.275.275 0 0 1 .2.331"></path>
                                    <path fill="#fffcf9" d="M336.616 481.7a.269.269 0 1 1-.2-.327.27.27 0 0 1 .2.327"></path>
                                    <path fill="#fffefc" d="M336.61 481.694a.264.264 0 1 1-.193-.319.264.264 0 0 1 .193.319"></path>
                                    <path fill="#ffffff" d="M336.606 481.694a.26.26 0 0 1-.313.19.259.259 0 1 1 .122-.5.26.26 0 0 1 .191.31"></path>
                                </g>
                            </g>
                        </g>
                        <g>
                            <path d="M40.159 22.373a1.4 1.4 0 1 1 1.708-1.674l-1.371.307.1.479 1.289-.281.813-.178a2.2 2.2 0 1 0-1.068 1.87l-.412-.684a1.4 1.4 0 0 1-1.059.161"></path>
                        </g>
                    </g>
                </g>
                <g>
                    <path fill="#ffffff" d="m19.829 33.152 2.347-.912a1.414 1.414 0 0 1 .279-1.9c1.014-.78 1.633.6 1.633.6s.992-.978 1.914-.173-.485 1.914-.485 1.914.872.719.5 1.436c-.648 1.23-1.935-.1-1.935-.1a24.4 24.4 0 0 0-4.345 1.941"></path>
                    <path d="m20.034 36.342-.6-.782a24 24 0 0 1 4.483-2.017l.3-.1.217.226a1.44 1.44 0 0 0 .878.47c.036 0 .144-.019.266-.254.18-.338-.367-.82-.373-.824l-.464-.39.474-.379c.2-.155.6-.579.608-.888a.32.32 0 0 0-.143-.267c-.571-.5-1.214.127-1.242.153l-.507.5-.292-.648c-.067-.151-.285-.484-.508-.539-.038-.01-.156-.038-.373.13a.9.9 0 0 0-.166 1.243l.332.508-2.914 1.134-.358-.92 1.864-.724a1.775 1.775 0 0 1 .639-2.024 1.38 1.38 0 0 1 1.219-.3 1.64 1.64 0 0 1 .85.585 1.74 1.74 0 0 1 2.106.163 1.3 1.3 0 0 1 .479 1.036 2.07 2.07 0 0 1-.594 1.267 1.51 1.51 0 0 1 .237 1.649 1.33 1.33 0 0 1-1 .77 2.05 2.05 0 0 1-1.48-.539 21 21 0 0 0-3.938 1.761"></path>
                </g>
                <g>
                    <path d="m26.854 15.339-.9-.4a4.4 4.4 0 0 0 .357-1.123 5.3 5.3 0 0 0-1.131.75l-.619-.77c.9-.717 1.812-1.32 2.415-.855.467.366.427 1.148-.122 2.398"></path>
                </g>
                <g>
                    <path d="m21.693 13.125-.9-.4a5.6 5.6 0 0 0 .319-.867 7.3 7.3 0 0 0-1.1.766l-.618-.771c1.291-1.035 1.979-1.3 2.45-.935.538.417.249 1.306-.151 2.207"></path>
                </g>
            </g>
            <g>
                <path d="M39.782 10.109c-5.443-8.631-13.507-7.121-13.848-7.051l-.2-.968c.092-.018 9.064-1.733 14.88 7.493Z"></path>
            </g>
            <g>
                <path d="M40.528 9.073c-5-8.758-11.544-7.758-11.819-7.712l-.17-.973c.3-.054 7.488-1.194 12.847 8.2Z"></path>
            </g>
            <g>
                <path d="m34.529 0 .914.376-2.195 5.338-.914-.376z"></path>
            </g>
            <g>
                <path d="m40.115 5.734.646.749-2.659 2.293-.646-.749z"></path>
            </g>
            <g>
                <path d="M9.388 32.636c-.072-.023-7.245-2.419-7.709-11.421l.987-.052c.428 8.3 6.756 10.446 7.023 10.534Z"></path>
            </g>
            <g>
                <path d="M6.393 33.3c-.24-.084-5.9-2.174-5.967-11.112l.987-.007c.062 8.211 5.1 10.111 5.309 10.187Z"></path>
            </g>
            <g>
                <path d="m6.266 29.06.612.773-4.528 3.581-.612-.774z"></path>
            </g>
            <g>
                <path d="m3.442 26.215.195.968-3.443.692-.194-.97z"></path>
            </g>
            <g>
                <path fill="#1a1818" d="M29.493 8.914a1.4 1.4 0 0 1-1.156-.518 3.25 3.25 0 0 1-.228-2.512l.952.259-.476-.129.476.128a2.4 2.4 0 0 0 .048 1.64c.034.042.13.157.43.146l.04.984q-.045.003-.086.002"></path>
            </g>
            <g>
                <path fill="#1a1818" d="M23.12 8.004a1.5 1.5 0 0 1-.237-.021 1.43 1.43 0 0 1-1.056-.836l.882-.443c.137.271.281.3.337.306.433.072 1.17-.475 1.457-.754l.688.708a3.58 3.58 0 0 1-2.071 1.04"></path>
            </g>
        </g>
    </g>
</svg>